<?xml version="1.0" encoding="utf-8"?>
<!-- Generator: Adobe Illustrator 24.1.2, SVG Export Plug-In . SVG Version: 6.00 Build 0)  -->
<svg version="1.1" id="Layer_1" focusable="false" xmlns="http://www.w3.org/2000/svg" xmlns:xlink="http://www.w3.org/1999/xlink"
	 x="0px" y="0px" viewBox="0 0 595.7 898.5" style="enable-background:new 0 0 595.7 898.5;" xml:space="preserve">
<path d="M153.5,425.6h8v151L44.3,765.1c-29.3,47.1,4.5,108.5,60.1,108.5h306.2c55.7,0,89.4-61.5,60.1-108.5L353.5,576.6v-151h8
	c13.3,0,24-10.7,24-24v-16c0-13.3-10.7-24-24-24h-208 M171.4,681.6l48.2-77.6c3.7-5.2,5.8-11.6,5.8-18.4v-160h64v160
	c0,6.9,2.2,13.2,5.8,18.4l48.2,77.6H171.4z"/>
<path d="M186.5,127.4l73.6,26.8c25.4-58.8,62.1-104,100.2-125.2c-69.1-3.5-136.1,26.6-179.2,80.6
	C176.4,115.6,179.3,124.7,186.5,127.4z M281.9,162.1l171.9,62.6c25.8-87.5,13.5-167-30.7-183.1c-5.3-1.9-10.9-2.9-16.6-2.9
	C364.6,38.7,313.9,88.6,281.9,162.1L281.9,162.1z M479.3,72.3c4.5,11.8,7.8,24.9,9.5,39.8c4.1,36-1,78-13.7,120.4l74,26.9
	c7.3,2.6,15.4-2.5,15.5-10.2C566.3,180.2,534.4,114,479.3,72.3L479.3,72.3z M334.8,351.6l46.8-128.7l-43.4-15.8l-52.6,144.4"/>
</svg>
